<?xml version="1.0" encoding="utf-8"?>
<!-- Generator: Adobe Illustrator 25.2.3, SVG Export Plug-In . SVG Version: 6.00 Build 0)  -->
<svg version="1.1" id="Capa_1" xmlns="http://www.w3.org/2000/svg" xmlns:xlink="http://www.w3.org/1999/xlink" x="0px" y="0px"
	 viewBox="0 0 1280 600" style="enable-background:new 0 0 1280 600;" xml:space="preserve">
<style type="text/css">
	.st0{fill:#487EBC;stroke:#000000;stroke-width:5;stroke-miterlimit:10;}
	.st1{fill:#32057F;stroke:#000000;stroke-width:5;stroke-miterlimit:10;}
	.st2{fill:#FFFFFF;stroke:#000000;stroke-width:3;stroke-miterlimit:10;}
	.st3{fill:#FEFEFE;stroke:#000000;stroke-width:3;stroke-miterlimit:10;}
	.st4{fill:#32057F;}
</style>
<path class="st0" d="M241.52,560.94c-13.72-5.9-27.45-11.74-41.14-17.7c-59.19-25.76-118.35-51.62-177.6-77.21
	c-3.65-1.58-3.44-3.88-3.44-6.87c0.01-131.03,0.01-262.05,0.01-393.08c0-2.69,0.2-5.41-0.06-8.07c-0.41-4.15,1.18-4.22,4.25-3.1
	c64.96,23.65,129.94,47.25,194.93,70.8c8.17,2.96,16.2,6.42,24.59,8.65c1.86,1.71,1.52,4.08,1.52,6.26
	c0.05,30.5,0.69,61.01-0.13,91.48c-1.28,47.23-0.41,94.45-0.62,141.67c-0.25,56.06-0.07,112.11-0.04,168.17
	c0,4.49-0.26,8.96-0.21,13.45C243.59,557.5,243.46,559.62,241.52,560.94z"/>
<path class="st1" d="M241.52,560.94c1.32-4.67,0.65-9.47,0.66-14.19c0.19-98.78,0.02-197.56,0.51-296.33
	c0.18-36.15,0.23-72.3,0.49-108.45c0.02-2.54-0.08-5.08-0.13-7.62c5.95-4.01,12.78-5.7,19.26-8.25
	c70.29-27.64,140.62-55.15,210.94-82.69c0.51-0.2,1.04-0.33,1.52-0.49c1.25,0.99,0.71,2.28,0.71,3.36
	c0.03,138.52,0.01,277.03,0.11,415.55c0,3.77-1.09,5.34-4.33,6.66c-55.79,22.71-111.52,45.56-167.26,68.39
	c-19.79,8.11-39.57,16.24-59.35,24.39C243.49,561.76,242.4,562.79,241.52,560.94z"/>
<path class="st2" d="M1049.14,305.19c0-26.3,0-52.6,0-78.9c0-6.22,2.2-8.55,7.96-8.55c11.03,0,22.06-0.02,33.1-0.03
	c4.57,0,7.18,2.73,7.18,7.62c0.01,55.64,0.01,111.27,0,166.91c0,4.87-2.65,7.71-7.12,7.72c-13.83,0.03-27.65-0.1-41.48,0.13
	c-3.28,0.06-4.83-1-6.19-4.22c-14.64-34.68-29.45-69.28-44.22-103.9c-0.4-0.94-0.83-1.87-1.26-2.83c-1.48,0.5-0.72,1.77-0.72,2.62
	c-0.06,33.05-0.06,66.1-0.08,99.16c0,6.75-2.21,9.1-8.45,9.1c-10.89-0.01-21.79-0.01-32.68-0.02c-4.42,0-7.12-2.89-7.12-7.69
	c-0.01-55.64-0.01-111.27,0-166.91c0-4.85,2.6-7.64,7.1-7.65c17.74-0.01,35.47,0.12,53.21-0.14c3.17-0.05,3.7,1.96,4.57,4.03
	c11.08,26.26,22.11,52.53,33.17,78.8c0.72,1.71,1.49,3.39,2.24,5.09C1048.62,305.41,1048.88,305.3,1049.14,305.19z"/>
<path class="st2" d="M765.47,308.85c0-27.67,0-55.33,0-83c0-5.43,2.53-8.13,7.55-8.13c12.71,0,25.41-0.03,38.12-0.03
	c5.14,0,7.64,2.64,7.64,8.04c0.01,19.59,0.06,39.18-0.05,58.77c-0.02,2.8,0.44,3.84,3.34,3.79c11.03-0.2,22.06-0.18,33.09,0
	c2.86,0.05,3.74-0.65,3.71-3.89c-0.16-19.59-0.09-39.18-0.07-58.77c0-5.09,2.66-7.91,7.34-7.91c12.85,0,25.69-0.02,38.54-0.01
	c4.75,0,7.37,2.81,7.37,7.88c0.01,55.63,0.01,111.26,0,166.89c0,4.38-2.86,7.5-6.92,7.5c-12.99,0.03-25.97,0.02-38.96,0.02
	c-4.64,0-7.38-2.95-7.38-7.95c-0.01-21.98-0.07-43.97,0.07-65.95c0.02-3.3-0.68-4.33-3.89-4.26c-10.75,0.23-21.51,0.28-32.25-0.01
	c-3.52-0.09-4.02,1.24-4,4.54c0.12,21.83,0.07,43.67,0.06,65.5c0,5.36-2.59,8.11-7.59,8.11c-12.85,0-25.69,0.01-38.54,0
	c-4.35,0-7.18-3.01-7.18-7.69C765.46,364.48,765.47,336.66,765.47,308.85z"/>
<path class="st2" d="M659.93,217.7c10.05,0,20.11,0.08,30.16-0.05c2.51-0.03,3.53,0.72,4.27,3.47
	c15.11,56.55,30.35,113.06,45.57,169.58c1.43,5.3-1.39,9.29-6.54,9.29c-13.68,0-27.37-0.08-41.05,0.07
	c-2.72,0.03-3.88-0.76-4.51-3.68c-1.94-9.02-4.29-17.93-6.25-26.94c-0.59-2.72-1.71-3.51-4.25-3.48
	c-12.7,0.13-25.41,0.17-38.12-0.02c-2.85-0.04-3.82,1.07-4.43,3.8c-1.97,8.86-4.22,17.65-6.23,26.49c-0.6,2.63-1.48,3.88-4.37,3.84
	c-12.84-0.2-25.69-0.07-38.54-0.09c-4.32-0.01-7.37-4.29-6.19-8.68c9.81-36.43,19.64-72.86,29.46-109.29
	c5.45-20.22,10.99-40.42,16.3-60.69c0.76-2.91,1.89-3.68,4.56-3.63c10.05,0.16,20.11,0.07,30.16,0.07
	C659.93,217.73,659.93,217.72,659.93,217.7z"/>
<path class="st2" d="M1134.01,308.66c0-27.67-0.01-55.33,0-83c0-5.47,2.49-8,7.66-7.99c38.4,0.03,76.8,0.04,115.21,0.04
	c5.77,0,8.03,2.33,8.04,8.49c0.01,5.38,0.03,10.77,0.02,16.15c-0.02,6.46-2.25,8.87-8.16,8.88c-21.78,0-43.57,0.09-65.35-0.07
	c-3.42-0.03-4.51,0.8-4.39,4.63c0.28,9.41,0.23,18.84,0.02,28.26c-0.07,3.28,0.63,4.3,3.87,4.26c16.76-0.2,33.51-0.09,50.27-0.09
	c5.24,0,7.79,2.75,7.79,8.4c0.01,5.68,0,11.37,0,17.05c0,5.56-2.59,8.28-7.88,8.28c-16.76,0-33.52,0.06-50.27-0.07
	c-2.83-0.02-3.84,0.67-3.79,3.92c0.18,12.11,0.23,24.23-0.01,36.34c-0.07,3.75,1.17,4.31,4.29,4.29
	c21.92-0.14,43.85-0.09,65.77-0.07c5.4,0,7.83,2.61,7.84,8.31c0.01,5.83,0.02,11.67,0,17.5c-0.02,5.07-2.67,7.81-7.49,7.81
	c-38.54,0-77.09,0.01-115.63,0.01c-5.41,0-7.81-2.56-7.81-8.33C1134.01,363.99,1134.01,336.32,1134.01,308.66z"/>
<path class="st2" d="M500.58,308.28c0-27.22,0-54.43,0-81.65c0-6.52,2.18-8.92,8.12-8.92c12.71-0.02,25.41-0.04,38.12-0.04
	c4.16,0,7.03,2.97,7.03,7.35c0.02,55.78,0.03,111.56,0.02,167.34c0,4.69-2.87,7.63-7.28,7.63c-12.71,0.01-25.41,0-38.12,0
	c-5.31,0-7.87-2.68-7.87-8.26C500.58,363.91,500.59,336.09,500.58,308.28z"/>
<path class="st3" d="M361.19,337.47c2.85-11.36,5.72-22.71,8.54-34.07c6.78-27.28,13.58-54.55,20.25-81.86
	c0.8-3.27,2.1-4.41,5.38-4.36c14.38,0.22,28.77,0.09,43.15,0.1c4.75,0,7.93,4.69,6.55,9.55c-15.94,55.99-31.92,111.96-47.72,168
	c-1.2,4.27-2.81,5.66-7.11,5.6c-21.78-0.3-43.57-0.21-65.36-0.05c-3.07,0.02-4.25-0.99-5.13-4.11
	c-15.98-56.6-32.08-113.16-48.15-169.72c-1.3-4.59,1.87-9.25,6.37-9.25c15.92-0.02,31.84,0.13,47.76-0.11
	c3.43-0.05,4.73,1.04,5.59,4.53c9.26,37.7,18.68,75.35,28.06,113.02c0.23,0.93,0.5,1.85,0.75,2.78
	C360.48,337.48,360.84,337.47,361.19,337.47z"/>
<path class="st4" d="M673.17,333.71c-9.44,0-18.37-0.12-27.3,0.06c-3.45,0.07-2.26-2.09-1.89-3.76c2.54-11.32,5.16-22.63,7.76-33.94
	c1.96-8.51,3.92-17.03,6.61-25.66C663.25,291.3,668.13,312.18,673.17,333.71z"/>
</svg>
